<?xml version="1.0" encoding="UTF-8" standalone="no"?>
<svg width="218px" height="218px" viewBox="0 0 218 218" version="1.1" xmlns="http://www.w3.org/2000/svg" xmlns:xlink="http://www.w3.org/1999/xlink">
    <!-- Generator: Sketch 3.8.3 (29802) - http://www.bohemiancoding.com/sketch -->
    <title>mcfc-logo-new</title>
    <desc>Created with Sketch.</desc>
    <defs></defs>
    <g id="Page-1" stroke="none" stroke-width="1" fill="none" fill-rule="evenodd">
        <g id="mcfc-logo-new">
            <path d="M109.102347,0.102347418 C49.1267606,0.102347418 0.307042254,48.9220657 0.307042254,108.897653 C0.307042254,168.873239 49.1267606,217.692958 109.102347,217.692958 C169.077934,217.692958 217.897653,168.873239 217.897653,108.897653 C217.897653,48.9220657 169.077934,0.102347418 109.102347,0.102347418" id="Shape" fill="#002A5A"></path>
            <path d="M206.537089,108.897653 C206.537089,55.0629108 162.885915,11.4117371 109.051174,11.4117371 C55.2164319,11.4117371 11.5652582,55.0629108 11.5652582,108.897653 C11.5652582,162.732394 55.2164319,206.383568 109.051174,206.383568 C162.937089,206.383568 206.537089,162.732394 206.537089,108.897653" id="Shape" fill="#FFFFFF"></path>
            <path d="M171.124883,108.897653 C171.124883,74.6112676 143.337559,46.8751174 109.051174,46.8751174 C74.7647887,46.8751174 47.0286385,74.6624413 47.0286385,108.897653 C47.0286385,143.184038 74.8159624,170.971362 109.051174,170.971362 C143.337559,170.971362 171.124883,143.184038 171.124883,108.897653" id="Shape" fill="#7AB2E1"></path>
            <path d="M109.102347,45.6981221 C74.2530516,45.6981221 45.9028169,74.0483568 45.9028169,108.897653 C45.9028169,143.746948 74.2530516,172.148357 109.102347,172.148357 C143.951643,172.148357 172.353052,143.798122 172.353052,108.897653 C172.301878,74.0483568 143.951643,45.6981221 109.102347,45.6981221 M109.102347,175.884038 C72.2061033,175.884038 42.1159624,145.84507 42.1159624,108.897653 C42.1159624,71.9502347 72.1549296,41.9112676 109.102347,41.9112676 C146.049765,41.9112676 176.088732,71.9502347 176.088732,108.897653 C176.037559,145.84507 145.998592,175.884038 109.102347,175.884038" id="Shape" fill="#002A5A"></path>
            <polygon id="Shape" fill="#7AB2E1" points="22.0046948 106.543662 20.213615 106.953052 19.7530516 105.161972 22.6699531 104.292019 24.2051643 104.292019 24.2051643 114.475587 22.0046948 114.475587"></polygon>
            <path d="M32.0859155,107.260094 L32.0859155,107.260094 C32.0859155,106.594836 31.5741784,106.031925 30.6530516,106.031925 C29.7319249,106.031925 29.2201878,106.594836 29.2201878,107.20892 L29.2201878,107.260094 C29.2201878,107.976526 29.7830986,108.488263 30.6530516,108.488263 C31.5230047,108.488263 32.0859155,107.976526 32.0859155,107.260094 M32.3929577,111.507512 L32.3929577,111.507512 C32.3929577,110.688732 31.6765258,110.228169 30.6530516,110.228169 C29.6295775,110.228169 28.9131455,110.688732 28.9131455,111.456338 L28.9131455,111.456338 C28.9131455,112.17277 29.5784038,112.735681 30.6530516,112.735681 C31.7276995,112.786854 32.3929577,112.223944 32.3929577,111.507512 M26.7638498,111.712207 L26.7638498,111.712207 C26.7638498,110.432864 27.3267606,109.716432 28.4014085,109.255869 C27.6338028,108.795305 27.1220657,108.130047 27.1220657,107.055399 L27.1220657,107.004225 C27.1220657,105.469014 28.5549296,104.240845 30.6530516,104.240845 C32.8023474,104.240845 34.1840376,105.469014 34.1840376,107.004225 L34.1840376,107.055399 C34.1840376,108.130047 33.6723005,108.795305 32.9046948,109.255869 C33.928169,109.767606 34.5422535,110.432864 34.5422535,111.661033 L34.5422535,111.712207 C34.5422535,113.605634 32.9046948,114.680282 30.6530516,114.680282 C28.4014085,114.629108 26.7638498,113.452113 26.7638498,111.712207" id="Shape" fill="#7AB2E1"></path>
            <path d="M187.193427,107.669484 L187.193427,107.669484 C187.193427,106.748357 186.528169,106.083099 185.402347,106.083099 C184.3277,106.083099 183.662441,106.697183 183.662441,107.61831 L183.662441,107.669484 C183.662441,108.59061 184.3277,109.204695 185.402347,109.204695 C186.528169,109.153521 187.193427,108.539437 187.193427,107.669484 M187.142254,110.330516 C186.630516,110.739906 185.965258,111.046948 185.095305,111.046948 C182.894836,111.046948 181.461972,109.818779 181.461972,107.771831 L181.461972,107.720657 C181.461972,105.673709 183.048357,104.189671 185.3,104.189671 C186.68169,104.189671 187.449296,104.496714 188.216901,105.264319 C188.933333,105.980751 189.393897,107.106573 189.393897,109.051174 L189.393897,109.102347 C189.393897,112.377465 187.858685,114.629108 184.992958,114.629108 C183.50892,114.629108 182.53662,114.117371 181.666667,113.452113 L182.843662,111.76338 C183.560094,112.377465 184.225352,112.633333 185.044131,112.633333 C186.630516,112.633333 187.039906,111.200469 187.142254,110.330516" id="Shape" fill="#7AB2E1"></path>
            <path d="M196.558216,110.484038 L196.558216,107.362441 L193.897183,110.484038 L196.558216,110.484038 L196.558216,110.484038 Z M196.558216,112.275117 L191.594366,112.275117 L191.23615,110.688732 L196.762911,104.240845 L198.656338,104.240845 L198.656338,110.432864 L200.038028,110.432864 L200.038028,112.223944 L198.656338,112.223944 L198.656338,114.424413 L196.558216,114.424413 L196.558216,112.275117 L196.558216,112.275117 Z" id="Shape" fill="#7AB2E1"></path>
            <path d="M109.102347,48.000939 C75.5323944,48.000939 48.2056338,75.3276995 48.2056338,108.897653 C48.2056338,142.467606 75.5323944,169.794366 109.102347,169.794366 C142.6723,169.794366 169.999061,142.467606 169.999061,108.897653 C169.999061,75.3276995 142.6723,48.000939 109.102347,48.000939 M109.102347,172.148357 C74.2530516,172.148357 45.8516432,143.798122 45.8516432,108.897653 C45.8516432,74.0483568 74.2018779,45.6469484 109.102347,45.6469484 C143.951643,45.6469484 172.353052,73.9971831 172.353052,108.897653 C172.301878,143.798122 143.951643,172.148357 109.102347,172.148357" id="Shape" fill="#FFFFFF"></path>
            <path d="M107.925352,54.5 C76.7093897,54.5 58.6962441,58.5938967 58.6962441,58.5938967 C58.6962441,58.5938967 51.4807512,85.9206573 55.5746479,120.974648 C57.314554,135.661502 69.2380282,167.338028 108.897653,178.135681 C148.506103,167.338028 160.480751,135.661502 162.169484,120.974648 C166.26338,85.9206573 159.047887,58.5938967 159.047887,58.5938967 C159.047887,58.5938967 141.034742,54.5 109.818779,54.5 L107.925352,54.5 L107.925352,54.5 Z" id="Shape" fill="#002A5A"></path>
            <path d="M156.74507,112.786854 C156.386854,123.430986 154.749296,155.209859 108.897653,172.660094 C63.4042254,155.670423 60.999061,122.816901 60.999061,112.786854 L156.74507,112.786854 L156.74507,112.786854 Z" id="Shape" fill="#A8C9EB"></path>
            <path d="M155.414554,111.046948 C156.642723,84.743662 152.19061,63.3530516 152.19061,63.3530516 C152.19061,63.3530516 135.098592,60.0779343 109,60.0779343 C82.8502347,60.0779343 65.5023474,63.7112676 65.5023474,63.7112676 C65.5023474,63.7112676 60.7431925,85.1530516 62.0225352,111.046948 L155.414554,111.046948 L155.414554,111.046948 Z" id="Shape" fill="#FFFFFF"></path>
            <path d="M110.330516,171.738967 L61.9201878,113.247418 C60.1802817,125.273239 69.9544601,160.838967 110.330516,171.738967" id="Shape" fill="#7AB2E1"></path>
            <path d="M76.3511737,112.838028 L121.128169,166.877465 C125.682629,164.728169 128.957746,162.578873 132.18169,160.020188 L93.0849765,112.838028 L76.3511737,112.838028 L76.3511737,112.838028 Z" id="Shape" fill="#7AB2E1"></path>
            <path d="M107.464789,112.889202 L140.523005,152.804695 C143.746948,149.120188 146.510329,145.793897 148.45493,142.262911 L124.147418,112.889202 L107.464789,112.889202 L107.464789,112.889202 Z" id="Shape" fill="#7AB2E1"></path>
            <path d="M155.977465,112.889202 L139.448357,112.838028 L153.316432,129.571831 C155.670423,124.403286 155.977465,115.75493 155.977465,112.889202" id="Shape" fill="#7AB2E1"></path>
            <path d="M128.446009,134.791549 L128.446009,134.791549 C128.292488,134.38216 128.03662,134.126291 127.62723,133.97277 L124.86385,133.000469 C124.607981,132.898122 124.352113,132.949296 124.147418,133.000469 C123.942723,132.028169 123.379812,131.158216 122.561033,130.595305 C122.458685,130.544131 122.356338,130.441784 122.253991,130.39061 C122.049296,130.237089 121.895775,130.134742 121.639906,130.083568 C121.28169,129.930047 120.923474,129.8277 120.565258,129.725352 C119.746479,129.469484 118.978873,129.213615 117.955399,128.497183 C117.034272,127.831925 116.573709,127.166667 116.164319,126.603756 C116.061972,126.450235 115.959624,126.296714 115.857277,126.194366 C115.601408,125.784977 115.243192,125.426761 114.833803,125.119718 C114.117371,124.607981 113.298592,124.352113 112.428638,124.352113 C112.223944,124.352113 112.070423,124.403286 111.865728,124.403286 C111.865728,124.403286 111.865728,124.403286 111.865728,124.352113 C111.916901,123.993897 111.814554,123.635681 111.609859,123.379812 L109.921127,121.076995 C109.665258,120.769953 109.307042,120.565258 108.897653,120.565258 L108.897653,120.565258 C108.488263,120.565258 108.078873,120.769953 107.874178,121.076995 L106.083099,123.379812 C105.878404,123.686854 105.776056,124.04507 105.82723,124.403286 C105.673709,124.403286 105.520188,124.352113 105.41784,124.352113 C104.547887,124.352113 103.729108,124.607981 103.012676,125.119718 C102.910329,125.170892 102.807981,125.273239 102.756808,125.375587 C102.552113,125.529108 102.398592,125.682629 102.24507,125.83615 C101.989202,126.143192 101.784507,126.450235 101.579812,126.706103 C101.068075,127.422535 100.607512,128.03662 99.5840376,128.804225 C98.6629108,129.469484 97.8953052,129.725352 97.2300469,129.930047 C97.0765258,129.981221 96.871831,130.032394 96.7183099,130.083568 C96.2065728,130.185915 95.7460094,130.39061 95.3366197,130.697653 C94.5178404,131.260563 93.9549296,132.18169 93.7502347,133.153991 C93.4431925,133.051643 93.1873239,133.000469 92.8802817,133.102817 L90.1680751,134.023944 C89.7586854,134.126291 89.5028169,134.433333 89.3492958,134.842723 L89.3492958,134.842723 C89.2469484,135.252113 89.2981221,135.661502 89.5028169,135.968545 L91.1403756,138.373709 C91.3450704,138.629577 91.600939,138.834272 91.9079812,138.885446 C91.4474178,139.806573 91.3962441,140.881221 91.7032864,141.853521 C91.7544601,141.955869 91.8056338,142.058216 91.8056338,142.211737 C91.8568075,142.416432 91.9591549,142.621127 92.1126761,142.825822 C92.3173709,143.132864 92.5220657,143.439906 92.7267606,143.746948 C93.2384977,144.46338 93.699061,145.077465 94.1084507,146.305634 C94.4666667,147.431455 94.4666667,148.147887 94.415493,148.864319 L94.415493,149.376056 C94.3643192,149.887793 94.4666667,150.399531 94.6201878,150.860094 C94.92723,151.832394 95.5924883,152.6 96.4624413,153.111737 C96.3600939,153.316432 96.2577465,153.521127 96.3089202,153.725822 L96.3089202,156.591549 C96.3089202,157.000939 96.513615,157.359155 96.8206573,157.615023 L96.8206573,157.615023 C97.1276995,157.870892 97.5882629,157.922066 97.9464789,157.819718 L100.761033,157.000939 C101.016901,156.949765 101.221596,156.74507 101.375117,156.591549 C102.193897,157.359155 103.370892,157.768545 104.496714,157.666197 C104.701408,157.666197 104.957277,157.615023 105.161972,157.56385 C105.571362,157.461502 105.878404,157.359155 106.23662,157.256808 C107.055399,157.000939 107.823005,156.74507 109.102347,156.74507 C110.279343,156.74507 110.995775,157.000939 111.661033,157.256808 C111.814554,157.307981 111.968075,157.359155 112.121596,157.410329 C112.58216,157.615023 113.093897,157.717371 113.605634,157.717371 C114.629108,157.717371 115.652582,157.307981 116.369014,156.591549 C116.522535,156.796244 116.72723,156.949765 116.931925,157.000939 L119.695305,157.870892 C120.104695,157.973239 120.514085,157.922066 120.821127,157.717371 L120.821127,157.717371 C121.179343,157.461502 121.332864,157.103286 121.384038,156.693897 L121.435211,153.828169 C121.435211,153.623474 121.384038,153.367606 121.28169,153.214085 C122.151643,152.753521 122.816901,151.934742 123.123944,150.962441 C123.175117,150.860094 123.175117,150.706573 123.226291,150.604225 C123.277465,150.399531 123.328638,150.194836 123.328638,149.938967 C123.379812,149.529577 123.379812,149.171362 123.379812,148.813146 C123.379812,147.943192 123.379812,147.124413 123.789202,145.947418 C124.147418,144.821596 124.607981,144.258685 125.068545,143.644601 C125.170892,143.49108 125.273239,143.388732 125.375587,143.235211 C125.682629,142.825822 125.938498,142.416432 126.092019,141.904695 C126.450235,140.881221 126.347887,139.806573 125.83615,138.834272 C126.092019,138.731925 126.296714,138.629577 126.450235,138.373709 L128.138967,136.019718 C128.497183,135.610329 128.599531,135.200939 128.446009,134.791549" id="Shape" fill="#002A5A"></path>
            <path d="M107.413615,140.983568 C107.413615,140.113615 108.130047,139.397183 109.051174,139.397183 C109.9723,139.397183 110.688732,140.113615 110.688732,140.983568 C110.688732,141.853521 109.9723,142.621127 109.051174,142.621127 C108.130047,142.621127 107.413615,141.904695 107.413615,140.983568" id="Shape" fill="#FDCA50"></path>
            <path d="M99.9422535,139.038967 C98.9699531,139.346009 98.458216,140.369484 98.7652582,141.341784 C98.7652582,141.444131 98.8164319,141.546479 98.9187793,141.648826 C98.9699531,141.7 98.9699531,141.751174 99.0211268,141.751174 C99.0211268,141.751174 99.0211268,141.802347 99.0723005,141.802347 C99.4305164,142.314085 99.9422535,142.825822 100.249296,143.849296 C100.607512,144.923944 100.453991,145.538028 100.505164,146.152113 C100.505164,146.356808 100.505164,146.561502 100.607512,146.766197 C100.914554,147.738498 101.938028,148.250235 102.910329,147.943192 C103.166197,147.840845 103.370892,147.738498 103.575587,147.584977 C103.677934,147.533803 103.729108,147.431455 103.780282,147.380282 C103.780282,147.380282 106.850704,143.184038 106.953052,143.030516 C107.106573,142.825822 106.953052,142.6723 106.850704,142.518779 C106.748357,142.416432 106.543662,142.058216 106.492488,141.853521 C106.390141,141.597653 106.390141,141.29061 106.390141,141.085915 C106.390141,140.881221 106.390141,140.7277 106.185446,140.625352 C105.980751,140.574178 102.449765,139.397183 101.27277,139.038967 C100.812207,138.93662 100.351643,138.885446 99.9422535,139.038967 M97.5370892,141.341784 C97.1788732,140.215962 97.7929577,138.987793 98.9187793,138.578404 C99.0723005,138.52723 99.0723005,138.373709 98.9699531,138.322535 C97.7929577,137.861972 96.8206573,137.55493 95.7971831,137.861972 C94.3131455,138.322535 93.5455399,139.857746 94.0061033,141.29061 C94.057277,141.392958 94.057277,141.444131 94.1084507,141.546479 C94.1596244,141.648826 94.2107981,141.802347 94.3131455,141.955869 C94.8760563,142.928169 95.6948357,143.593427 96.2577465,145.333333 C96.7183099,146.766197 96.5647887,147.687324 96.6159624,148.506103 C96.5647887,148.864319 96.6159624,149.222535 96.7183099,149.580751 C97.1788732,151.013615 98.7652582,151.832394 100.198122,151.320657 C101.170423,150.962441 101.784507,150.143662 102.500939,149.120188 C102.552113,149.01784 102.449765,148.915493 102.347418,148.966667 C101.221596,149.324883 99.9422535,148.710798 99.5840376,147.584977 C99.2769953,146.715023 99.686385,145.384507 99.328169,144.309859 C98.9699531,143.286385 97.7929577,142.160563 97.5370892,141.341784 M108.130047,131.823474 C107.515962,131.004695 106.390141,130.851174 105.571362,131.414085 C105.469014,131.465258 105.366667,131.516432 105.315493,131.669953 C105.264319,131.721127 105.264319,131.7723 105.213146,131.7723 L105.161972,131.823474 C104.752582,132.335211 104.44554,132.949296 103.575587,133.56338 C102.65446,134.228638 102.040376,134.279812 101.477465,134.535681 C101.27277,134.586854 101.068075,134.689202 100.914554,134.791549 C100.095775,135.405634 99.8910798,136.531455 100.505164,137.350235 C100.658685,137.55493 100.86338,137.708451 101.068075,137.861972 C101.170423,137.913146 101.221596,137.964319 101.323944,137.964319 C101.323944,137.964319 106.287793,139.550704 106.441315,139.601878 C106.697183,139.653052 106.799531,139.499531 106.901878,139.397183 C107.004225,139.294836 107.260094,138.987793 107.464789,138.834272 C107.669484,138.680751 107.976526,138.52723 108.181221,138.52723 C108.385915,138.476056 108.539437,138.424883 108.539437,138.169014 L108.539437,133.051643 C108.488263,132.642254 108.385915,132.18169 108.130047,131.823474 M105.161972,130.237089 C106.134272,129.520657 107.515962,129.725352 108.232394,130.697653 C108.334742,130.851174 108.488263,130.8 108.488263,130.646479 C108.539437,129.41831 108.539437,128.394836 107.976526,127.524883 C107.106573,126.296714 105.366667,126.040845 104.138498,126.910798 C104.03615,126.961972 103.984977,127.013146 103.933803,127.115493 C103.831455,127.21784 103.729108,127.269014 103.575587,127.422535 C102.859155,128.241315 102.449765,129.213615 100.914554,130.288263 C99.686385,131.158216 98.7652582,131.311737 97.9976526,131.567606 C97.6394366,131.669953 97.3323944,131.823474 97.0253521,132.028169 C95.7971831,132.898122 95.4901408,134.638028 96.4112676,135.866197 C97.0253521,136.684977 98.0488263,136.992019 99.2258216,137.350235 C99.328169,137.401408 99.3793427,137.247887 99.328169,137.14554 C98.6117371,136.173239 98.8164319,134.791549 99.7887324,134.126291 C100.505164,133.614554 101.938028,133.56338 102.859155,132.846948 C103.780282,132.232864 104.44554,130.8 105.161972,130.237089 M117.546009,137.350235 C118.160094,136.531455 117.955399,135.405634 117.13662,134.842723 C117.085446,134.791549 116.983099,134.689202 116.829577,134.638028 C116.778404,134.638028 116.72723,134.586854 116.676056,134.586854 L116.624883,134.586854 C116.010798,134.38216 115.34554,134.279812 114.475587,133.614554 C113.55446,132.949296 113.298592,132.386385 112.889202,131.925822 C112.786854,131.7723 112.633333,131.567606 112.428638,131.465258 C111.609859,130.851174 110.484038,131.055869 109.869953,131.874648 C109.716432,132.079343 109.614085,132.335211 109.562911,132.539906 C109.562911,132.642254 109.511737,132.744601 109.511737,132.846948 L109.511737,138.169014 C109.511737,138.424883 109.716432,138.476056 109.869953,138.52723 C110.023474,138.578404 110.38169,138.731925 110.586385,138.885446 C110.79108,139.038967 110.995775,139.243662 111.098122,139.448357 C111.200469,139.601878 111.302817,139.755399 111.558685,139.653052 C111.76338,139.550704 115.34554,138.476056 116.471362,138.066667 C116.880751,137.913146 117.290141,137.708451 117.546009,137.350235 M118.160094,134.075117 C119.132394,134.791549 119.337089,136.122066 118.671831,137.094366 C118.569484,137.247887 118.671831,137.350235 118.825352,137.299061 C120.002347,136.992019 121.025822,136.684977 121.639906,135.815023 C122.561033,134.638028 122.253991,132.898122 121.025822,131.976995 C120.923474,131.925822 120.8723,131.874648 120.769953,131.823474 C120.667606,131.721127 120.514085,131.669953 120.360563,131.618779 C119.337089,131.20939 118.262441,131.107042 116.778404,130.032394 C115.550235,129.162441 115.140845,128.343662 114.629108,127.678404 C114.475587,127.371362 114.219718,127.115493 113.912676,126.910798 C112.684507,126.040845 110.944601,126.296714 110.074648,127.524883 C109.460563,128.394836 109.460563,129.41831 109.562911,130.646479 C109.562911,130.748826 109.716432,130.8 109.767606,130.697653 C110.484038,129.725352 111.865728,129.520657 112.838028,130.237089 C113.605634,130.748826 114.066197,132.079343 114.987324,132.744601 C115.806103,133.358685 117.392488,133.56338 118.160094,134.075117 M115.140845,147.994366 C116.113146,148.301408 117.13662,147.789671 117.443662,146.817371 C117.494836,146.715023 117.494836,146.612676 117.546009,146.459155 L117.546009,146.305634 L117.546009,146.25446 C117.546009,145.589202 117.443662,144.923944 117.801878,143.900469 C118.160094,142.825822 118.620657,142.416432 118.978873,141.904695 C119.132394,141.751174 119.234742,141.546479 119.285915,141.341784 C119.592958,140.369484 119.081221,139.346009 118.10892,139.038967 C117.853052,138.987793 117.597183,138.93662 117.341315,138.987793 C117.238967,138.987793 117.13662,138.987793 117.034272,139.038967 C117.034272,139.038967 112.070423,140.676526 111.916901,140.7277 C111.661033,140.830047 111.712207,141.034742 111.712207,141.188263 C111.712207,141.341784 111.661033,141.7 111.609859,141.955869 C111.507512,142.211737 111.405164,142.467606 111.251643,142.621127 C111.098122,142.774648 110.995775,142.928169 111.149296,143.08169 C111.302817,143.235211 113.452113,146.25446 114.168545,147.226761 C114.373239,147.533803 114.731455,147.840845 115.140845,147.994366 M118.467136,147.533803 C118.10892,148.659624 116.880751,149.273709 115.703756,148.915493 C115.550235,148.864319 115.447887,148.966667 115.499061,149.120188 C116.164319,150.143662 116.778404,151.013615 117.801878,151.320657 C119.234742,151.832394 120.821127,151.013615 121.28169,149.580751 C121.332864,149.478404 121.332864,149.376056 121.332864,149.324883 C121.384038,149.222535 121.384038,149.069014 121.435211,148.864319 C121.537559,147.738498 121.28169,146.715023 121.844601,144.975117 C122.305164,143.542254 122.970423,142.876995 123.430986,142.211737 C123.635681,141.955869 123.840376,141.648826 123.942723,141.29061 C124.403286,139.857746 123.635681,138.271362 122.151643,137.861972 C121.128169,137.55493 120.155869,137.913146 118.978873,138.322535 C118.876526,138.373709 118.876526,138.476056 119.030047,138.52723 C120.207042,138.885446 120.821127,140.113615 120.462911,141.29061 C120.155869,142.160563 119.081221,143.030516 118.723005,144.105164 C118.467136,145.077465 118.774178,146.66385 118.467136,147.533803 M104.240845,148.915493 C104.240845,149.938967 105.059624,150.757746 106.083099,150.757746 C106.185446,150.757746 106.287793,150.757746 106.441315,150.706573 C106.492488,150.706573 106.543662,150.655399 106.594836,150.655399 L106.646009,150.655399 C107.260094,150.450704 107.874178,150.143662 108.948826,150.143662 C110.074648,150.143662 110.637559,150.450704 111.200469,150.604225 C111.405164,150.655399 111.609859,150.706573 111.865728,150.706573 C112.889202,150.706573 113.707981,149.887793 113.707981,148.864319 C113.707981,148.608451 113.656808,148.352582 113.55446,148.147887 C113.503286,148.04554 113.452113,147.943192 113.400939,147.892019 C113.400939,147.892019 110.330516,143.695775 110.228169,143.593427 C110.074648,143.388732 109.869953,143.49108 109.767606,143.542254 C109.614085,143.593427 109.255869,143.695775 109,143.695775 C108.744131,143.695775 108.437089,143.644601 108.232394,143.542254 C108.0277,143.439906 107.874178,143.388732 107.720657,143.593427 C107.61831,143.746948 105.366667,146.766197 104.701408,147.738498 C104.44554,148.04554 104.240845,148.45493 104.240845,148.915493 M105.724883,151.934742 C104.496714,151.934742 103.524413,150.962441 103.524413,149.785446 C103.524413,149.631925 103.370892,149.529577 103.268545,149.683099 C102.500939,150.655399 101.886854,151.474178 101.835681,152.548826 C101.784507,154.032864 103.06385,155.261033 104.599061,155.261033 L104.906103,155.261033 C105.059624,155.261033 105.213146,155.261033 105.366667,155.209859 C106.441315,154.953991 107.362441,154.442254 109.204695,154.442254 C110.739906,154.442254 111.558685,154.851643 112.377465,155.107512 C112.684507,155.261033 113.042723,155.312207 113.400939,155.312207 C114.93615,155.312207 116.164319,154.084038 116.164319,152.6 C116.164319,151.576526 115.499061,150.706573 114.731455,149.734272 C114.629108,149.631925 114.526761,149.734272 114.526761,149.83662 C114.526761,151.013615 113.55446,151.985915 112.326291,151.985915 C111.405164,151.985915 110.228169,151.21831 109.102347,151.21831 C108.0277,151.115962 106.646009,151.934742 105.724883,151.934742 M121.895775,136.787324 C122.919249,136.73615 123.840376,136.992019 124.607981,137.606103 L126.194366,135.405634 L123.584507,134.484507 C123.379812,135.405634 122.765728,136.224413 121.895775,136.787324 M116.983099,151.832394 C117.341315,152.804695 117.392488,153.725822 117.034272,154.646948 L119.644131,155.465728 L119.695305,152.753521 C118.774178,152.804695 117.801878,152.497653 116.983099,151.832394 M101.016901,151.832394 C100.198122,152.446479 99.2769953,152.804695 98.3558685,152.753521 L98.3558685,155.465728 L101.016901,154.698122 C100.658685,153.828169 100.658685,152.804695 101.016901,151.832394 M96.0018779,136.787324 C95.1319249,136.224413 94.5690141,135.456808 94.2619718,134.535681 L91.7032864,135.405634 L93.2384977,137.657277 C93.9549296,137.043192 94.92723,136.73615 96.0018779,136.787324 M109,127.269014 C108.744131,126.296714 108.130047,125.426761 107.311268,124.966197 L109,122.816901 L110.637559,124.966197 C109.818779,125.529108 109.255869,126.296714 109,127.269014" id="Shape" fill="#E42313"></path>
            <path d="M124.300939,84.7948357 L135.507981,80.9568075 C135.507981,80.9568075 134.535681,85.613615 134.842723,89.2469484 C135.200939,93.9037559 137.861972,97.4859155 137.861972,97.4859155 L124.04507,102.24507 L124.300939,84.7948357 L124.300939,84.7948357 Z" id="Shape" fill="#FDCA50"></path>
            <path d="M137.861972,97.4859155 C137.861972,97.4859155 135.405634,93.9549296 134.996244,89.8610329 C134.689202,86.7906103 134.996244,84.1295775 135.507981,80.9568075 C134.996244,83.1061033 133.205164,89.0934272 128.190141,94.6713615 C126.143192,96.9230047 125.273239,98.8676056 124.86385,100.249296 L124.607981,73.843662 L124.607981,73.843662 L124.607981,73.843662 C124.607981,73.843662 121.946948,74.7647887 121.69108,74.8671362 C121.384038,74.9694836 121.230516,75.1741784 121.230516,75.2765258 C121.230516,75.4300469 121.076995,75.5323944 120.923474,75.5835681 C120.718779,75.6347418 119.183568,76.1976526 118.10892,76.5558685 C117.904225,76.6070423 118.006573,76.8117371 118.10892,76.8117371 C119.388263,76.7605634 121.179343,76.6070423 121.384038,76.6070423 C121.639906,76.5558685 121.742254,76.4535211 121.793427,76.2488263 C121.793427,76.2488263 121.793427,76.2488263 121.793427,76.1976526 C121.844601,75.9929577 121.998122,75.8394366 122.202817,75.8394366 C122.356338,75.8394366 123.328638,75.7370892 123.942723,75.6347418 L123.686854,104.03615 L124.966197,104.03615 L124.966197,101.989202 L137.861972,97.4859155 L137.861972,97.4859155 Z" id="Shape" fill="#DAA500"></path>
            <path d="M88.1723005,102.961502 C88.1723005,102.961502 86.0741784,101.426291 85.5112676,98.5093897 C84.9483568,95.5413146 86.4323944,93.8014085 86.4323944,93.8014085 L99.9934272,89.1446009 C99.9934272,89.1446009 99.1746479,91.8568075 99.9422535,94.92723 C100.965728,98.8164319 103.012676,101.426291 103.012676,101.426291 C103.012676,101.426291 98.0488263,100.505164 93.1873239,101.119249 C88.6328638,101.68216 88.1723005,102.961502 88.1723005,102.961502" id="Shape" fill="#FDCA50"></path>
            <path d="M72.5131455,99.5840376 C72.5131455,99.5840376 74.2018779,94.9784038 79.1657277,89.9122066 C82.9014085,86.1253521 85.4089202,84.9483568 85.4089202,84.9483568 C85.4089202,84.9483568 83.2084507,88.0699531 82.2873239,93.2384977 C81.7244131,96.4112676 82.3384977,100.453991 82.3384977,100.453991 C82.3384977,100.453991 79.7798122,99.9422535 76.8629108,99.6352113 C74.4577465,99.328169 72.5131455,99.5840376 72.5131455,99.5840376" id="Shape" fill="#FDCA50"></path>
            <path d="M85.4089202,84.9483568 C85.4089202,84.9483568 83.2596244,88.0699531 82.3384977,93.2384977 C81.7755869,96.4112676 82.3896714,100.453991 82.3896714,100.453991 C82.3896714,100.453991 81.7244131,100.300469 80.2915493,99.9934272 C74.2018779,98.6117371 85.4089202,84.9483568 85.4089202,84.9483568" id="Shape" fill="#DAA500"></path>
            <path d="M93.3920188,88.6840376 L93.2896714,76.4535211 L93.2896714,76.4535211 L93.2896714,76.4535211 L93.2896714,76.4535211 L93.2384977,76.4535211 C92.9314554,76.5558685 90.5774648,77.3746479 90.3215962,77.4258216 C90.014554,77.528169 89.8610329,77.7328638 89.8610329,77.8352113 C89.8610329,77.9887324 89.7586854,78.0910798 89.5539906,78.1422535 C89.3492958,78.1934272 87.8140845,78.756338 86.7394366,79.114554 C86.5347418,79.1657277 86.6370892,79.3704225 86.7394366,79.3704225 C87.9676056,79.3192488 89.8098592,79.1657277 90.014554,79.1657277 C90.2704225,79.114554 90.37277,79.0122066 90.4239437,78.8075117 C90.4239437,78.8075117 90.4239437,78.8075117 90.4239437,78.756338 C90.4751174,78.5516432 90.6286385,78.3981221 90.8333333,78.3981221 C90.9868545,78.3981221 91.9079812,78.2957746 92.5220657,78.1934272 L92.4197183,88.6328638 L93.3920188,88.6328638 L93.3920188,88.6840376 Z" id="Shape" fill="#DAA500"></path>
            <path d="M109.204695,77.6305164 L110.125822,77.6305164 L110.125822,65.8605634 L110.125822,65.8605634 L110.125822,65.8605634 C110.125822,65.8605634 107.464789,66.7816901 107.20892,66.8840376 C106.901878,66.986385 106.748357,67.1910798 106.748357,67.2934272 C106.748357,67.4469484 106.594836,67.5492958 106.441315,67.6004695 C106.23662,67.6516432 104.701408,68.214554 103.626761,68.57277 C103.422066,68.6239437 103.524413,68.8286385 103.626761,68.8286385 C104.85493,68.7774648 106.697183,68.6239437 106.901878,68.6239437 C107.157746,68.57277 107.260094,68.4704225 107.311268,68.2657277 L107.311268,68.2657277 C107.362441,68.0610329 107.515962,67.9075117 107.720657,67.9075117 C107.874178,67.9075117 108.744131,67.8051643 109.358216,67.7028169 L109.204695,77.6305164 L109.204695,77.6305164 Z" id="Shape" fill="#DAA500"></path>
            <path d="M106.799531,68.6239437 L106.850704,68.6239437 C107.106573,68.57277 107.20892,68.4704225 107.260094,68.2657277 L107.260094,68.2657277 C107.311268,68.1122066 107.362441,68.0098592 107.515962,67.9586854 L107.157746,66.9352113 C106.850704,67.0375587 106.748357,67.2422535 106.748357,67.3446009 C106.748357,67.4981221 106.646009,67.5492958 106.492488,67.6516432 L106.799531,68.6239437 L106.799531,68.6239437 Z" id="Shape" fill="#FDCA50"></path>
            <path d="M89.9122066,79.1657277 L89.9633803,79.1657277 C90.2192488,79.114554 90.3215962,79.0122066 90.37277,78.8075117 L90.37277,78.8075117 C90.4239437,78.6539906 90.4751174,78.5516432 90.6286385,78.5004695 L90.2704225,77.4769953 C89.9633803,77.5793427 89.8610329,77.7840376 89.8610329,77.886385 C89.8610329,78.0399061 89.7586854,78.0910798 89.6051643,78.1422535 L89.9122066,79.1657277 L89.9122066,79.1657277 Z" id="Shape" fill="#FDCA50"></path>
            <path d="M121.28169,76.5558685 L121.332864,76.5558685 C121.588732,76.5046948 121.69108,76.4023474 121.742254,76.1976526 L121.742254,76.1976526 C121.793427,76.0441315 121.895775,75.941784 121.998122,75.8906103 L121.639906,74.8671362 C121.332864,74.9694836 121.230516,75.1741784 121.179343,75.2765258 C121.179343,75.4300469 121.076995,75.4812207 120.923474,75.5835681 L121.28169,76.5558685 L121.28169,76.5558685 Z" id="Shape" fill="#FDCA50"></path>
            <path d="M103.012676,101.426291 C103.012676,101.426291 100.812207,98.2535211 99.9934272,94.8760563 C99.2769953,91.9591549 99.9934272,89.1957746 99.9934272,89.1957746 C99.9934272,89.1957746 98.5605634,94.1596244 95.0807512,96.871831 C92.6755869,98.7652582 86.7906103,100.505164 88.1723005,102.961502 C88.3769953,102.603286 88.9910798,101.989202 91.3962441,101.426291 C91.7032864,101.375117 92.0103286,101.323944 92.2661972,101.27277 L92.2661972,105.315493 L93.5455399,105.315493 L93.5455399,101.119249 C97.9976526,100.607512 103.012676,101.426291 103.012676,101.426291" id="Shape" fill="#DAA500"></path>
            <path d="M86.7394366,92.9826291 C86.7394366,92.9826291 85.1530516,92.0103286 85.3065728,88.9399061 C85.5112676,85.7671362 87.0976526,84.385446 87.1488263,84.2830986 L97.6906103,80.6497653 C97.6906103,80.6497653 96.9230047,82.2361502 97.4347418,84.6413146 C98.1,87.558216 99.9422535,89.1446009 99.9422535,89.1446009 C99.9422535,89.1446009 94.6201878,89.1957746 89.8610329,90.884507 C87.558216,91.7032864 86.7394366,92.9826291 86.7394366,92.9826291" id="Shape" fill="#FDCA50"></path>
            <path d="M93.0338028,86.3300469 C96.1042254,83.8225352 97.741784,80.6497653 97.741784,80.6497653 C97.741784,80.6497653 97.3323944,82.6967136 97.6394366,84.4877934 C98.2023474,87.558216 99.9934272,89.1957746 99.9934272,89.1957746 C99.9934272,89.1957746 95.6948357,89.2469484 91.0380282,90.5774648 C87.9676056,91.4474178 86.9953052,92.6755869 86.7394366,93.0849765 C85.7671362,90.6798122 89.9122066,88.8887324 93.0338028,86.3300469" id="Shape" fill="#DAA500"></path>
            <path d="M105.110798,103.780282 C105.110798,103.780282 102.193897,101.579812 101.477465,97.5370892 C100.914554,94.3131455 103.06385,91.9591549 103.06385,91.9591549 L119.592958,86.2788732 C119.592958,86.2788732 118.671831,89.9633803 119.541784,93.4431925 C120.462911,97.3835681 124.096244,102.296244 124.096244,102.296244 C124.096244,102.296244 117.238967,100.300469 111.302817,101.068075 C105.622535,101.733333 105.110798,103.780282 105.110798,103.780282" id="Shape" fill="#FDCA50"></path>
            <path d="M101.68216,77.5793427 C101.579812,75.071831 103.319718,73.0760563 103.422066,72.9737089 L115.294366,68.8286385 C115.294366,68.8286385 114.526761,70.670892 114.731455,72.3084507 C115.089671,75.3276995 116.829577,76.9652582 116.829577,76.9652582 C116.829577,76.9652582 112.17277,76.7093897 106.697183,78.6028169 C103.677934,79.6774648 103.370892,81.1103286 103.370892,81.1103286 C103.370892,81.1103286 101.835681,80.6497653 101.68216,77.5793427" id="Shape" fill="#FDCA50"></path>
            <path d="M111.098122,74.3553991 C113.196244,72.5131455 115.294366,68.8286385 115.294366,68.8286385 C115.294366,68.8286385 114.526761,70.670892 114.731455,72.3084507 C115.089671,75.3276995 116.829577,76.9652582 116.829577,76.9652582 C116.829577,76.9652582 111.814554,76.9140845 106.953052,78.6028169 C104.85493,79.3192488 103.575587,80.4962441 103.370892,81.1103286 C102.603286,78.756338 108.130047,76.9652582 111.098122,74.3553991" id="Shape" fill="#DAA500"></path>
            <path d="M103.422066,91.242723 C103.422066,91.242723 101.68216,89.2469484 101.375117,86.2276995 C101.016901,83.0549296 102.910329,81.7755869 103.06385,81.6732394 L116.778404,76.9140845 C116.778404,76.9140845 116.420188,77.886385 116.72723,80.700939 C117.034272,83.0037559 119.285915,86.1765258 119.285915,86.1765258 C119.285915,86.1765258 111.968075,86.3812207 107.413615,88.1211268 C104.650235,89.2469484 103.422066,91.242723 103.422066,91.242723" id="Shape" fill="#FDCA50"></path>
            <path d="M112.479812,83.3107981 C115.447887,80.7521127 116.778404,76.9140845 116.778404,76.9140845 C116.778404,76.9140845 116.420188,79.0633803 116.778404,80.7521127 C117.494836,83.7201878 119.592958,86.2276995 119.592958,86.2276995 C119.592958,86.2276995 113.247418,86.3300469 108.59061,87.8652582 C105.571362,88.8887324 103.677934,90.6798122 103.422066,91.1915493 C102.807981,88.6840376 109.511737,85.8694836 112.479812,83.3107981" id="Shape" fill="#DAA500"></path>
            <path d="M124.352113,102.500939 C124.352113,102.500939 120.616432,97.6906103 119.541784,93.3920188 C118.825352,90.5774648 119.337089,87.3535211 119.592958,86.2788732 C119.183568,87.7629108 117.648357,92.6244131 114.015023,96.0018779 C110.535211,99.2258216 103.626761,100.812207 105.110798,103.831455 C105.366667,103.319718 106.185446,102.193897 108.948826,101.477465 L108.897653,105.366667 L110.228169,105.366667 L110.228169,101.221596 C116.369014,100.249296 124.352113,102.500939 124.352113,102.500939" id="Shape" fill="#DAA500"></path>
            <path d="M130.748826,111.558685 C131.618779,111.405164 132.488732,111.200469 133.768075,110.893427 C133.665728,110.842254 133.614554,110.79108 133.56338,110.739906 C132.18169,109.204695 132.437559,107.567136 133.256338,106.748357 C136.326761,103.831455 136.275587,101.733333 136.275587,101.733333 C136.275587,101.733333 128.753052,103.268545 118.876526,103.780282 C118.262441,103.831455 115.959624,104.803756 115.294366,104.85493 C113.96385,104.906103 112.530986,104.957277 111.098122,104.957277 C92.470892,105.110798 87.2511737,103.831455 81.1103286,102.65446 C74.9183099,101.477465 72.2061033,100.249296 72.2061033,100.249296 L71.9502347,100.914554 C71.9502347,100.914554 76.8117371,102.807981 80.342723,104.547887 C81.0591549,104.906103 83.9760563,109.255869 84.9483568,110.739906 L62.7901408,110.739906 C61.5619718,85.3577465 66.4746479,64.5812207 66.4746479,64.5812207 C66.4746479,64.5812207 83.4131455,60.9478873 108.897653,60.9478873 L108.897653,58.2356808 C81.8267606,58.2356808 63.813615,62.0737089 63.813615,62.0737089 C63.813615,62.0737089 55.9328638,89.8098592 60.129108,122.816901 C61.8690141,136.582629 73.2807512,162.323005 108.795305,174.297653 L110.330516,172.097183 L108.795305,169.947887 C75.3276995,158.689671 65.5535211,136.070892 63.8647887,123.123944 C63.5065728,120.258216 63.1995305,117.392488 62.9948357,114.629108 L108.948826,114.629108 L108.948826,110.739906 L85.4600939,110.739906 C85.971831,109.051174 87.6605634,108.641784 89.7075117,109.102347 C91.8568075,109.614085 93.9549296,110.125822 95.9507042,110.023474 C101.016901,109.767606 100.249296,108.385915 100.709859,108.437089 C105.878404,108.744131 107.874178,110.023474 112.377465,109.921127 C116.522535,109.869953 117.955399,108.795305 118.313615,108.744131 C123.379812,108.692958 125.273239,110.995775 130.339437,111.456338 C130.492958,111.558685 130.595305,111.558685 130.748826,111.558685" id="Shape" fill="#FDCA50"></path>
            <path d="M153.879343,62.1248826 C153.879343,62.1248826 135.917371,58.2868545 108.846479,58.2868545 L108.846479,60.999061 C134.330986,60.999061 151.21831,64.6323944 151.21831,64.6323944 C151.21831,64.6323944 156.130986,85.4089202 154.902817,110.79108 L132.693427,110.79108 C130.902347,109.102347 131.925822,106.850704 132.539906,106.338967 C135.149765,103.984977 135.149765,102.398592 135.149765,102.398592 C135.149765,102.398592 129.162441,103.882629 119.285915,104.343192 C118.671831,104.343192 115.857277,105.622535 115.192019,105.622535 C113.810329,105.673709 111.916901,105.724883 110.484038,105.724883 C97.6394366,105.724883 91.2938967,105.469014 80.1380282,103.115023 C80.342723,103.370892 80.4450704,103.473239 80.6497653,103.780282 C80.700939,103.882629 85.5624413,105.110798 85.613615,105.213146 C86.3300469,106.185446 87.3023474,106.901878 88.4793427,107.515962 C90.2704225,108.488263 92.9314554,109.307042 95.1319249,109.40939 C100.146948,109.716432 99.2258216,107.823005 99.686385,107.823005 C104.85493,107.720657 108.181221,109.614085 112.684507,109.511737 C116.829577,109.460563 116.931925,108.181221 117.341315,108.130047 C121.435211,107.874178 125.580282,109.665258 129.111268,110.842254 L108.795305,110.842254 L108.795305,114.731455 L154.595775,114.731455 C154.39108,117.546009 154.084038,120.360563 153.725822,123.226291 C152.037089,136.173239 142.211737,158.843192 108.795305,170.050235 L108.795305,174.4 C144.309859,162.476526 155.721596,136.73615 157.461502,122.919249 C161.760094,89.8610329 153.879343,62.1248826 153.879343,62.1248826" id="Shape" fill="#DAA500"></path>
            <polygon id="Shape" fill="#002A5A" points="25.8938967 74.0483568 27.7873239 70.5173709 36.1286385 69.9032864 31.8812207 62.6877934 33.7746479 59.1056338 48.7173709 66.986385 46.9774648 70.2615023 37.2544601 65.1441315 41.3995305 72.6666667 41.3483568 72.7690141 32.8535211 73.5877934 42.5253521 78.7051643 40.8366197 81.929108"></polygon>
            <path d="M52.8624413,51.4807512 L47.3356808,49.3826291 L49.7920188,54.7558685 L52.8624413,51.4807512 L52.8624413,51.4807512 Z M42.9859155,47.5403756 L45.3399061,45.0328638 L62.6877934,51.4295775 L60.0267606,54.2441315 L56.2399061,52.7600939 L51.32723,57.9286385 L53.0159624,61.6643192 L50.4061033,64.4276995 L42.9859155,47.5403756 L42.9859155,47.5403756 Z" id="Shape" fill="#002A5A"></path>
            <polygon id="Shape" fill="#002A5A" points="56.3422535 35.2586854 59.3103286 33.4676056 71.4384977 38.2779343 66.0652582 29.3737089 69.1868545 27.4802817 77.9375587 41.9112676 75.2253521 43.5488263 62.6877934 38.5849765 68.2657277 47.7962441 65.0929577 49.6896714"></polygon>
            <path d="M79.0122066,32.341784 L79.0122066,32.341784 C77.6816901,27.6849765 80.0356808,22.9258216 85.0507042,21.441784 C88.1211268,20.571831 90.2192488,21.0323944 92.1638498,22.1070423 L90.6286385,25.3821596 C89.0422535,24.614554 87.558216,24.3075117 85.971831,24.7680751 C83.2596244,25.5356808 81.929108,28.4014085 82.7478873,31.1647887 L82.7478873,31.2159624 C83.5666667,33.9793427 86.1253521,35.7704225 88.9399061,34.9516432 C90.7821596,34.4399061 91.7032864,33.3652582 92.6755869,31.8300469 L95.5924883,33.4676056 C94.4666667,35.7192488 92.9314554,37.3568075 89.7586854,38.2779343 C84.9483568,39.6596244 80.342723,36.9985915 79.0122066,32.341784" id="Shape" fill="#002A5A"></path>
            <polygon id="Shape" fill="#002A5A" points="99.2258216 18.7807512 102.961502 18.6784038 103.115023 25.3821596 109.9723 25.1774648 109.818779 18.5248826 113.503286 18.4225352 113.96385 35.3098592 110.228169 35.3610329 110.074648 28.6061033 103.217371 28.7596244 103.370892 35.5657277 99.686385 35.6680751"></polygon>
            <path d="M135.35446,37.6126761 L138.476056,36.1286385 C139.346009,37.9197183 140.420657,39.3014085 142.211737,40.1201878 C143.593427,40.7342723 144.668075,40.5807512 145.077465,39.7107981 L145.077465,39.6596244 C145.486854,38.7896714 145.128638,38.1244131 142.876995,36.2821596 C140.164789,34.0816901 138.578404,32.2906103 139.960094,29.2713615 L139.960094,29.2201878 C141.239437,26.4568075 144.309859,25.6380282 147.482629,27.070892 C149.734272,28.0943662 151.269484,29.6807512 152.292958,31.6253521 L149.376056,33.3652582 C148.45493,31.7788732 147.380282,30.6018779 146.100939,29.9877934 C144.821596,29.3737089 143.849296,29.6807512 143.49108,30.3971831 L143.49108,30.4483568 C143.030516,31.471831 143.542254,32.0859155 145.84507,33.9793427 C148.557277,36.2309859 149.83662,38.1755869 148.557277,40.8366197 L148.557277,40.8877934 C147.175587,43.9070423 144.053991,44.5723005 140.7277,43.0370892 C138.424883,41.9624413 136.429108,40.0690141 135.35446,37.6126761" id="Shape" fill="#002A5A"></path>
            <polygon id="Shape" fill="#002A5A" points="159.969014 38.5849765 155.926291 35.4633803 157.973239 32.7 169.077934 41.1948357 167.030986 43.9070423 162.937089 40.8366197 154.800469 51.5319249 151.832394 49.2802817"></polygon>
            <path d="M182.690141,72.8713615 C183.50892,74.5089202 184.839437,74.9694836 186.118779,74.3553991 L186.169953,74.3553991 C187.602817,73.6389671 187.807512,72.3084507 186.988732,70.670892 L185.351174,67.3957746 L181.001408,69.5962441 L182.690141,72.8713615 L182.690141,72.8713615 Z M186.68169,62.5342723 L190.161502,69.442723 C191.133803,71.3873239 191.338498,73.12723 190.826761,74.6112676 C190.417371,75.8906103 189.44507,76.9140845 188.012207,77.6305164 L187.961033,77.6305164 C185.504695,78.8586854 183.355399,78.2957746 181.666667,76.7605634 L178.135681,83.157277 L176.19108,79.2680751 L179.415023,73.5877934 L178.084507,70.9779343 L173.274178,73.3830986 L171.585446,70.0568075 L186.68169,62.5342723 L186.68169,62.5342723 Z" id="Shape" fill="#002A5A"></path>
            <polygon id="Shape" fill="#002A5A" points="124.096244 30.0901408 130.339437 31.4206573 132.028169 28.4525822 124.812676 26.8661972 125.529108 23.4887324 134.38216 25.4333333 135.047418 22.2093897 122.612207 19.4971831 119.030047 35.9751174 131.618779 38.7384977 132.284038 35.514554 123.379812 33.5699531"></polygon>
            <polygon id="Shape" fill="#002A5A" points="174.195305 46.2098592 161.248357 57.0586854 169.487324 66.8840376 172.046009 64.7859155 166.161033 57.7751174 168.873239 55.4723005 173.01831 60.4361502 176.344601 59.2591549 171.380751 53.3741784 174.041784 51.1737089 179.824413 58.0821596 182.383099 55.9840376"></polygon>
            <path d="M80.4450704,190.059155 L80.4450704,190.059155 C80.4450704,185.146479 84.1295775,181.103756 89.4004695,181.103756 C92.6244131,181.103756 94.5690141,182.178404 96.1553991,183.764789 L93.7502347,186.528169 C92.4197183,185.351174 91.0892019,184.583568 89.3492958,184.583568 C86.4323944,184.583568 84.385446,186.988732 84.385446,189.956808 L84.385446,190.007981 C84.385446,192.924883 86.4323944,195.381221 89.3492958,195.381221 C91.2938967,195.381221 92.5220657,194.613615 93.8525822,193.385446 L96.2577465,195.841784 C94.4666667,197.735211 92.5220657,198.912207 89.1957746,198.912207 C84.2319249,198.912207 80.4450704,195.023005 80.4450704,190.059155" id="Shape" fill="#002A5A"></path>
            <rect id="Rectangle-path" fill="#002A5A" x="99.9934272" y="181.461972" width="3.78685446" height="17.1943662"></rect>
            <polygon id="Shape" fill="#002A5A" points="112.530986 184.941784 107.311268 184.941784 107.311268 181.461972 121.537559 181.461972 121.537559 184.941784 116.31784 184.941784 116.31784 198.605164 112.530986 198.605164"></polygon>
            <polygon id="Shape" fill="#002A5A" points="129.776526 191.850235 123.175117 181.461972 127.576056 181.461972 131.721127 188.319249 135.866197 181.461972 140.164789 181.461972 133.56338 191.799061 133.56338 198.605164 129.776526 198.605164"></polygon>
            <path d="M109.102347,6.857277 C52.8112676,6.857277 7.06197183,52.6577465 7.06197183,108.948826 C7.06197183,165.239906 52.8624413,211.040376 109.102347,211.040376 C165.393427,211.040376 211.193897,165.239906 211.193897,108.948826 C211.142723,52.6065728 165.342254,6.857277 109.102347,6.857277 M109.102347,213.240845 C51.5830986,213.240845 4.75915493,166.416901 4.75915493,108.897653 C4.75915493,51.3784038 51.5830986,4.55446009 109.102347,4.55446009 C166.621596,4.55446009 213.44554,51.3784038 213.44554,108.897653 C213.44554,166.416901 166.621596,213.240845 109.102347,213.240845" id="Shape" fill="#7AB2E1"></path>
        </g>
    </g>
</svg>