<?xml version="1.0" encoding="UTF-8" standalone="no"?>
<svg width="128px" height="56px" viewBox="0 0 128 56" version="1.1" xmlns="http://www.w3.org/2000/svg" xmlns:xlink="http://www.w3.org/1999/xlink">
    <!-- Generator: Sketch 3.8.3 (29802) - http://www.bohemiancoding.com/sketch -->
    <title>opta-logo</title>
    <desc>Created with Sketch.</desc>
    <defs></defs>
    <g id="Page-1" stroke="none" stroke-width="1" fill="none" fill-rule="evenodd">
        <g id="MCFC-Hack-Holding---iPad-Landscape" transform="translate(-71.000000, -6533.000000)" fill="#0095DF">
            <g id="Footer" transform="translate(0.000000, 6326.970563)">
                <g id="partner-logogs" transform="translate(71.000000, 199.000000)">
                    <path d="M88.8257358,50.8836184 C80.1157297,50.8454692 75.5204126,44.9705016 75.5204126,36.2434316 L75.5204126,7.41176471 L84.4615605,7.41176471 L84.4615605,16.2169496 L89.8365221,16.2169496 L89.8365221,24.0793058 L84.4615605,24.0793058 L84.4615605,36.3124634 C84.4615605,41.1519544 86.6995991,42.9667635 91.1665041,42.6997195 C93.5421271,47.4411126 96.8973506,49.9644058 96.8973506,49.9644058 C92.8156817,51.1052467 88.8257358,50.8836184 88.8257358,50.8836184 Z M56.5954111,51.5319721 C52.5430936,51.5319721 49.0979817,50.1894857 46.4618657,47.5099627 L46.4618657,62.4844086 L37.4766908,62.4844086 L37.4766908,33.4365632 C37.4766908,23.5177867 44.8420393,15.4083695 55.381,15.4083695 C65.8539202,15.4083695 73.2174342,23.5177867 73.2174342,33.4365632 C73.2174342,43.4225549 65.7842108,51.5319721 56.5954111,51.5319721 Z M127.880978,50.7962387 L119.435133,50.7962387 L119.435133,47.1775202 C116.799017,50.056872 113.016365,51.5319721 108.828298,51.5319721 C99.6431672,51.5319721 92.1402343,43.48977 92.1402343,33.5709935 C92.1402343,23.5850019 99.5055828,15.4083695 110.042709,15.4083695 C120.515629,15.4083695 127.880978,23.5850019 127.880978,33.5709935 L127.880978,50.7962387 Z M35.4985949,33.5381126 C35.4985949,43.9691775 27.4966895,51.757052 17.71536,51.757052 C7.93403043,51.757052 0,43.9691775 0,33.5381126 C0,23.1070477 7.93403043,15.1811096 17.71536,15.1811096 C27.4966895,15.1811096 35.4985949,23.1070477 35.4985949,33.5381126 Z M26.4015181,33.6053278 C26.4015181,27.5777636 22.5032951,23.3777249 17.71536,23.3777249 C12.9274248,23.3777249 9.0292018,27.5777636 9.0292018,33.6053278 C9.0292018,39.4984616 12.9274248,43.5622534 17.71536,43.5622534 C22.5032951,43.5622534 26.4015181,39.4984616 26.4015181,33.6053278 Z M110.042709,23.7176156 C105.111686,23.7176156 101.125409,27.9394538 101.125409,33.6382087 C101.125409,39.1335015 105.111686,43.3571563 110.042709,43.3571563 C114.975566,43.3571563 118.961843,38.9990712 118.961843,33.6382087 C118.961843,28.1392826 114.975566,23.7176156 110.042709,23.7176156 Z M55.381,23.7176156 C50.4499771,23.7176156 46.4618657,28.0738841 46.4618657,33.4365632 C46.4618657,38.9318561 50.4499771,43.3571563 55.381,43.3571563 C60.3138573,43.3571563 64.3001343,39.0662864 64.3001343,33.4365632 C64.3001343,27.8740552 60.3138573,23.7176156 55.381,23.7176156 Z" id="opta-logo"></path>
                </g>
            </g>
        </g>
    </g>
</svg>