<?xml version="1.0" encoding="UTF-8" standalone="no"?>
<svg width="96px" height="48px" viewBox="0 0 96 48" version="1.1" xmlns="http://www.w3.org/2000/svg" xmlns:xlink="http://www.w3.org/1999/xlink">
    <!-- Generator: Sketch 3.8.3 (29802) - http://www.bohemiancoding.com/sketch -->
    <title>SAP_2011_logo</title>
    <desc>Created with Sketch.</desc>
    <defs>
        <linearGradient x1="49.9649146%" y1="0.0540357987%" x2="49.9649146%" y2="100.003538%" id="linearGradient-1">
            <stop stop-color="#00B8F1" offset="0%"></stop>
            <stop stop-color="#06A5E5" offset="21.9864%"></stop>
            <stop stop-color="#06A5E5" offset="21.9864%"></stop>
            <stop stop-color="#1870C5" offset="79.4312%"></stop>
            <stop stop-color="#1D61BC" offset="100%"></stop>
        </linearGradient>
    </defs>
    <g id="Page-1" stroke="none" stroke-width="1" fill="none" fill-rule="evenodd">
        <g id="MCFC-Hack-Holding---iPad-Landscape" transform="translate(-488.000000, -6532.000000)">
            <g id="Footer" transform="translate(0.000000, 6326.970563)">
                <g id="partner-logogs" transform="translate(71.000000, 199.000000)">
                    <g id="SAP_2011_logo" transform="translate(417.929862, 6.485294)">
                        <g id="svg5220">
                            <polygon id="path3060" fill="url(#linearGradient-1)" points="0 0 0 46.63575 47.6499967 46.63575 94.2907222 0.00525 94.2907222 0.00525 0 0.00525"></polygon>
                            <path d="M60.3554723,41.86875 L60.3554723,45.346875 L60.8805874,45.346875 L60.8805874,43.8375 L61.4712369,43.8375 L62.4230606,45.346875 L63.0138151,45.346875 L61.996352,43.8375 C62.5047685,43.7745 62.9153035,43.478925 62.9153035,42.853125 C62.9153035,42.167475 62.4956315,41.86875 61.6682601,41.86875 L60.3554723,41.86875 L60.3554723,41.86875 Z M60.8805874,42.328125 L61.6025157,42.328125 C61.9575985,42.328125 62.3574212,42.385875 62.3574212,42.82026 C62.3574212,43.363215 61.9525574,43.41099 61.5041091,43.41099 L60.8805874,43.41099 L60.8805874,42.328125 L60.8805874,42.328125 Z M61.5369813,40.58901 C59.8713161,40.58901 58.4518249,41.872215 58.4518249,43.60776 C58.4518249,45.35601 59.8712111,46.659375 61.5369813,46.659375 C63.1795414,46.659375 64.5563933,45.35622 64.5563933,43.60776 C64.5563933,41.872215 63.1795414,40.58901 61.5369813,40.58901 L61.5369813,40.58901 Z M61.5369813,41.08125 C62.8958742,41.08125 63.9655337,42.178815 63.9655337,43.60776 C63.9655337,45.06117 62.8958742,46.134375 61.5369813,46.134375 C60.1547733,46.134375 59.0426845,45.06117 59.0426845,43.60776 C59.0426845,42.178815 60.1547733,41.08125 61.5369813,41.08125 L61.5369813,41.08125 Z" id="path5384" fill="#1870C5"></path>
                            <path d="M56.4992368,22.3146 L54.4554888,22.3146 L54.4554888,14.84175 L56.4992368,14.84175 C59.227735,14.84175 61.3996112,15.74055 61.3996112,18.5304 C61.3996112,21.4116 59.227735,22.3146 56.4992368,22.3146 M34.5021642,27.657 C33.4204271,27.657 32.4059046,27.4596 31.5289624,27.1299 L34.4727578,17.8479 L34.5357716,17.8479 L37.4186536,27.1551 C36.5501132,27.4659 35.5618465,27.657 34.5053149,27.657 M55.957318,8.77065 L46.6764333,8.77065 L46.6764333,30.8343 L38.5686558,8.77065 L30.5322939,8.77065 L23.6049751,27.21705 C22.8729646,22.56765 18.0555585,20.958 14.2684282,19.75785 C11.7720309,18.9546 9.11494835,17.7744 9.13910365,16.46715 C9.16010825,15.39825 10.5663666,14.40705 13.3400247,14.5551 C15.2094345,14.6496 16.858296,14.8008 20.1318637,16.38315 L23.3560706,10.76775 C20.3692157,9.2421 16.2302583,8.2845 12.844316,8.27715 L12.8233114,8.27715 C8.87339539,8.27715 5.58197379,9.56445 3.54032618,11.6718 C2.12146511,13.146 1.35374679,15.0108 1.3190892,17.08665 C1.26657768,19.93005 2.31365724,21.94815 4.50548778,23.562 C6.3601944,24.9207 8.72636316,25.79535 10.8163214,26.45055 C13.3946366,27.2454 15.4992981,27.93945 15.4751428,29.4189 C15.4541382,29.95755 15.2535442,30.4626 14.8639087,30.8616 C14.2222181,31.52835 13.2360519,31.7751 11.8718028,31.80555 C9.24202621,31.85805 7.29174864,31.44855 4.18516755,29.61315 L1.3190892,35.3073 C4.41621821,37.07025 8.08257202,38.10135 11.8245424,38.10135 L12.3086985,38.10135 C15.5644123,38.03835 18.1941889,37.1091 20.2956996,35.4207 L20.6359742,35.12355 L19.7075707,37.61835 L28.1356684,37.61835 L29.5513788,33.3144 C31.0322035,33.81525 32.7188733,34.09665 34.5042647,34.09665 C36.2465967,34.09665 37.890207,33.83415 39.3447759,33.35535 L40.7058743,37.61835 L54.4575892,37.61835 L54.4575892,28.70385 L57.4580971,28.70385 C64.7046858,28.70385 68.9959266,25.01625 68.9959266,18.82755 C68.9959266,11.93955 64.828613,8.7801 55.9562678,8.7801" id="path3100" fill="#FFFFFF"></path>
                        </g>
                    </g>
                </g>
            </g>
        </g>
    </g>
</svg>