<?xml version="1.0" encoding="UTF-8" standalone="no"?>
<svg width="196px" height="49px" viewBox="0 0 196 49" version="1.1" xmlns="http://www.w3.org/2000/svg" xmlns:xlink="http://www.w3.org/1999/xlink">
    <!-- Generator: Sketch 3.8.3 (29802) - http://www.bohemiancoding.com/sketch -->
    <title>play logo</title>
    <desc>Created with Sketch.</desc>
    <defs>
        <polygon id="path-1" points="0 47.568 195.560784 47.568 195.560784 0 0 0"></polygon>
    </defs>
    <g id="Page-1" stroke="none" stroke-width="1" fill="none" fill-rule="evenodd">
        <g id="MCFC-Hack-Holding---iPad-Landscape" transform="translate(-414.000000, -6778.000000)">
            <g id="Footer" transform="translate(0.000000, 6326.970563)">
                <g id="play-logo" transform="translate(414.000000, 452.000000)">
                    <path d="M62.6501243,47.568 L52.8192554,47.568 C51.514221,47.568 50.4576255,46.5163636 50.4576255,45.2174545 L50.4576255,0 L62.6501243,0 L62.6501243,47.568 L62.6501243,47.568 Z" id="Fill-1" fill="#FFFFFF"></path>
                    <mask id="mask-2" fill="white">
                        <use xlink:href="#path-1"></use>
                    </mask>
                    <g id="Clip-4"></g>
                    <polygon id="Fill-3" fill="#73BA70" mask="url(#mask-2)" points="62.6504166 47.568 85.5667027 47.568 85.5667027 35.7978182 62.6504166 35.7978182"></polygon>
                    <path d="M21.0775467,0 L12.255047,0 L12.255047,11.0996364 L20.4038392,11.0996364 C25.5509063,11.0996364 27.4492709,14.5149091 27.4492709,18.2952727 C27.4492709,22.5032727 25.5509063,25.6741818 20.4038392,25.6741818 L12.255047,25.6741818 L12.255047,36.7738182 L21.0775467,36.7738182 C33.7610776,36.7738182 39.8273682,28.2967273 39.8273682,18.2341818 C39.8273682,8.66036364 33.7610776,0 21.0775467,0" id="Fill-5" fill="#EC6153" mask="url(#mask-2)"></path>
                    <path d="M12.2544624,0 L2.33590917,0 C1.04548887,0 0.000584561853,1.04145455 0.000584561853,2.32581818 L0.000584561853,47.568 L12.2544624,47.568 L12.2544624,0 Z" id="Fill-6" fill="#FFFFFF" mask="url(#mask-2)"></path>
                    <path d="M182.941847,0 C181.799029,0 180.738049,0.592 180.140334,1.56363636 L170.500909,17.2581818 L170.495064,17.2494545 L163.51978,28.6836364 C164.116033,29.7323636 164.43608,30.9163636 164.43608,32.1236364 L164.43608,47.568 L176.628579,47.568 L176.628579,32.1294545 C176.628579,30.8203636 176.998314,29.5374545 177.695404,28.4276364 L195.561076,0 L182.941847,0 Z" id="Fill-7" fill="#FFFFFF" mask="url(#mask-2)"></path>
                    <path d="M163.51978,28.6840727 L170.495064,17.2498909 L170.500909,17.2586182 L160.921402,1.56989091 C160.32661,0.595345455 159.262708,0.000436363636 158.115505,0.000436363636 L145.563501,0.000436363636 L163.373639,28.4309818 C163.424788,28.5138909 163.471553,28.5997091 163.51978,28.6840727 L163.51978,28.6840727 Z" id="Fill-8" fill="#FFDC18" mask="url(#mask-2)"></path>
                    <path d="M62.6501243,47.568 L52.8192554,47.568 C51.514221,47.568 50.4576255,46.5163636 50.4576255,45.2174545 L50.4576255,0 L62.6501243,0 L62.6501243,47.568 Z" id="Fill-9" fill="#36383A" mask="url(#mask-2)"></path>
                    <polygon id="Fill-10" fill="#44F282" mask="url(#mask-2)" points="62.6504166 47.568 85.5667027 47.568 85.5667027 35.7978182 62.6504166 35.7978182"></polygon>
                    <path d="M21.0775467,0 L12.255047,0 L12.255047,11.0996364 L20.4038392,11.0996364 C25.5509063,11.0996364 27.4492709,14.5149091 27.4492709,18.2952727 C27.4492709,22.5032727 25.5509063,25.6741818 20.4038392,25.6741818 L12.255047,25.6741818 L12.255047,36.7738182 L21.0775467,36.7738182 C33.7610776,36.7738182 39.8273682,28.2967273 39.8273682,18.2341818 C39.8273682,8.66036364 33.7610776,0 21.0775467,0" id="Fill-11" fill="#F96050" mask="url(#mask-2)"></path>
                    <path d="M12.2544624,0 L2.33590917,0 C1.04548887,0 0.000584561853,1.04145455 0.000584561853,2.32581818 L0.000584561853,47.568 L12.2544624,47.568 L12.2544624,0 Z" id="Fill-12" fill="#36383A" mask="url(#mask-2)"></path>
                    <path d="M126.926207,0 L120.994366,15.6523636 L126.188198,29.5781818 L115.736232,29.5781818 L111.131346,41.7745455 C111.525925,41.0676364 112.278549,40.6152727 113.107165,40.6152727 L128.789498,40.6152727 C129.730643,40.6152727 130.573873,41.1956364 130.905612,42.0727273 L132.988114,47.568 L146.346814,47.568 L126.926207,0 Z" id="Fill-13" fill="#36383A" mask="url(#mask-2)"></path>
                    <path d="M125.43236,0 L114.913169,0 L95.5510191,47.568 L107.290483,47.568 L108.93164,47.568 L109.940009,44.8465455 L110.99222,42.0727273 L115.718403,29.5781818 L115.737401,29.5781818 L118.261247,22.8538182 L126.487494,1.104 L115.737401,29.5781818 L120.994074,15.6523636 L126.487494,1.104 L126.925915,0 L125.43236,0" id="Fill-14" fill="#00ACEF" mask="url(#mask-2)"></path>
                    <path d="M181.101062,0 L170.501494,17.2581818 L170.495648,17.2494545 L163.520364,28.6836364 C164.116617,29.7323636 164.435203,30.9163636 164.435203,32.1236364 L164.435203,47.568 L176.627702,47.568 L176.627702,31.1912727 C176.627702,30.496 176.824992,29.8138182 177.196189,29.2232727 L195.561661,0 L181.101062,0 Z" id="Fill-15" fill="#36383A" mask="url(#mask-2)"></path>
                    <path d="M163.51978,28.6840727 L170.495064,17.2498909 L170.500909,17.2586182 L159.962721,0.000436363636 L145.563501,0.000436363636 L163.373639,28.4309818 C163.424788,28.5138909 163.471553,28.5997091 163.51978,28.6840727 L163.51978,28.6840727 Z" id="Fill-16" fill="#FFDE1A" mask="url(#mask-2)"></path>
                </g>
            </g>
        </g>
    </g>
</svg>